<?xml version="1.0" standalone="no"?>
<!DOCTYPE svg PUBLIC "-//W3C//DTD SVG 20010904//EN"
 "http://www.w3.org/TR/2001/REC-SVG-20010904/DTD/svg10.dtd">
<svg version="1.0" xmlns="http://www.w3.org/2000/svg"
 width="1599.000000pt" height="1599.000000pt" viewBox="0 0 1599.000000 1599.000000"
 preserveAspectRatio="xMidYMid meet">
<metadata>
Created by potrace 1.11, written by Peter Selinger 2001-2013
</metadata>
<g transform="translate(0.000000,1599.000000) scale(0.100000,-0.100000)"
fill="#000000" stroke="none">
<path d="M11399 15973 c-138 -28 -252 -127 -302 -263 -25 -68 -25 -67 -26
-477 l-1 -383 -43 0 c-24 0 -68 -7 -98 -16 -231 -68 -389 -274 -390 -509 0
-264 185 -484 447 -528 l79 -13 -1 -95 c-1 -90 -12 -306 -19 -359 -1 -14 -6
-56 -9 -95 -8 -74 -53 -389 -61 -415 -2 -8 -7 -35 -10 -60 -4 -24 -8 -47 -10
-50 -2 -3 -6 -22 -9 -43 -22 -141 -119 -488 -206 -741 -102 -293 -321 -774
-440 -966 -5 -8 -38 -62 -73 -120 -110 -181 -288 -441 -384 -560 -113 -140
-200 -263 -277 -390 -31 -52 -61 -102 -66 -110 -19 -29 -139 -276 -166 -340
-60 -146 -140 -392 -159 -493 -3 -11 -9 -34 -14 -51 -5 -17 -12 -47 -15 -66
-2 -19 -11 -73 -19 -120 -38 -213 -57 -517 -32 -514 134 19 445 26 570 13 44
-5 100 -10 125 -13 126 -13 366 -58 490 -93 107 -29 285 -85 295 -92 6 -5 30
-16 54 -25 172 -67 392 -250 505 -420 84 -126 162 -296 180 -389 2 -12 9 -43
15 -69 33 -144 31 -362 -4 -513 -35 -151 -83 -266 -182 -428 -30 -51 -67 -112
-81 -137 -86 -153 -262 -434 -303 -486 -62 -78 -176 -186 -261 -246 -37 -27
-69 -48 -72 -48 -4 0 -23 -10 -44 -23 -92 -58 -307 -128 -432 -142 -105 -11
-105 -11 -66 -53 87 -95 201 -267 278 -419 211 -414 284 -857 221 -1338 -16
-125 -89 -403 -128 -490 -7 -16 -22 -52 -33 -80 -73 -186 -228 -429 -395 -617
l-59 -66 7 -54 c3 -29 8 -64 10 -78 2 -14 6 -52 10 -85 13 -117 15 -140 20
-175 2 -19 9 -80 15 -135 6 -55 13 -111 15 -125 2 -14 7 -50 10 -80 3 -30 8
-71 10 -90 3 -19 7 -55 9 -80 9 -84 29 -245 42 -344 9 -62 53 -195 87 -261 66
-127 185 -264 297 -341 122 -85 290 -147 435 -161 100 -10 2738 -9 2820 1 245
30 488 172 631 369 82 113 153 281 169 397 3 25 8 56 10 70 2 14 7 50 10 80 3
30 8 71 10 90 2 19 7 60 10 90 3 30 8 66 10 80 2 14 7 54 10 90 4 36 9 72 10
80 2 9 6 46 9 82 4 37 8 75 10 85 2 10 7 52 11 93 4 41 9 82 10 91 2 8 6 42 9
75 4 32 15 131 26 219 11 88 24 203 30 255 6 52 12 106 15 120 2 14 6 57 10
95 3 39 10 99 15 135 5 36 12 92 15 125 3 33 8 69 10 80 2 11 7 56 10 100 4
44 9 82 10 85 2 3 6 37 10 75 3 39 8 79 10 90 2 11 7 51 10 90 4 38 9 78 11
90 2 11 6 45 9 75 3 30 8 71 10 90 3 19 7 55 10 80 8 71 16 141 21 185 3 22 7
56 9 75 2 19 7 60 10 90 3 30 8 66 10 80 3 14 7 54 10 90 3 36 8 76 10 90 2
14 9 70 15 125 6 55 13 111 15 125 6 45 15 120 30 260 3 30 8 66 10 80 2 14 6
54 10 90 4 36 8 76 10 90 2 14 6 50 10 80 3 30 8 71 10 90 2 19 7 60 10 90 4
30 8 66 10 80 2 14 7 54 10 90 4 36 8 72 10 81 2 8 6 49 10 90 4 40 8 76 10
79 1 3 6 41 10 84 4 43 8 86 10 95 4 23 14 107 21 176 3 33 7 67 9 75 2 8 7
44 10 80 4 36 8 76 10 90 2 14 9 70 15 125 11 100 15 134 24 210 3 22 8 65 11
95 3 30 7 65 9 77 3 12 7 54 11 95 3 40 8 80 10 88 2 8 7 42 10 75 5 57 11
108 20 185 3 19 7 55 10 80 2 25 12 101 20 170 17 142 22 180 30 265 4 33 8
71 11 85 8 49 18 247 17 365 0 219 -18 407 -54 594 -6 30 -12 64 -14 75 -4 33
-62 254 -85 326 -76 237 -187 485 -311 691 -85 141 -150 235 -299 429 -130
169 -269 367 -352 500 -143 232 -315 564 -405 779 -19 46 -38 91 -43 100 -45
89 -217 611 -244 741 -6 27 -25 105 -32 130 -9 32 -54 260 -73 371 -25 147
-35 225 -56 434 -6 61 -16 238 -20 353 l-3 102 36 1 c47 1 63 4 126 24 168 55
301 193 351 368 16 56 22 188 11 235 -4 12 -8 32 -11 45 -13 60 -82 175 -139
232 -89 89 -230 154 -338 157 l-36 0 -1 377 c0 236 -4 395 -11 426 -34 154
-147 272 -300 316 -63 17 -1405 20 -1491 2z"/>
<path d="M6321 9839 c-40 -10 -79 -23 -85 -28 -6 -5 -22 -12 -36 -16 -35 -11
-107 -60 -158 -109 -110 -104 -161 -220 -156 -353 3 -78 9 -136 20 -203 11
-60 12 -65 19 -82 11 -28 -17 -22 -98 18 -144 73 -224 137 -301 244 -54 73
-67 100 -110 224 -33 96 -48 113 -89 102 -56 -14 -47 -72 37 -251 109 -231
323 -420 571 -505 52 -17 60 -29 140 -185 21 -42 189 -271 282 -385 42 -52
164 -182 270 -288 180 -179 194 -196 203 -240 20 -99 34 -140 75 -223 80 -157
268 -376 485 -564 62 -54 166 -140 191 -158 13 -10 65 -48 115 -85 49 -37 133
-96 186 -130 l96 -64 -46 -41 c-93 -85 -287 -289 -337 -355 -1 -1 -33 9 -71
23 -61 23 -109 37 -179 51 -11 2 -31 6 -45 9 -14 3 -60 8 -103 12 -66 5 -77 9
-72 22 12 30 43 175 50 231 12 88 7 258 -9 350 -67 382 -320 709 -670 870 -84
39 -192 74 -261 86 -22 4 -49 9 -60 11 -11 3 -78 7 -150 9 -390 10 -746 -165
-978 -483 l-23 -32 -53 54 c-93 94 -239 191 -365 244 -375 156 -786 115 -1126
-112 -97 -65 -253 -222 -315 -317 -89 -138 -163 -325 -181 -458 -3 -26 -8 -56
-10 -67 -6 -27 -6 -254 -1 -263 3 -4 8 -31 11 -61 8 -70 48 -207 81 -278 14
-31 24 -57 22 -59 -1 -2 -18 -6 -37 -9 -372 -63 -685 -295 -855 -633 -32 -64
-67 -153 -80 -202 -10 -34 -24 -97 -30 -130 -11 -59 -15 -293 -6 -340 5 -25
12 -63 15 -85 16 -99 68 -242 128 -347 22 -39 38 -71 36 -72 -2 -2 -25 -9 -53
-16 -280 -73 -548 -278 -701 -536 -132 -224 -191 -503 -158 -749 24 -184 91
-361 194 -516 22 -34 39 -62 38 -64 -2 -1 -19 -8 -38 -15 -326 -124 -580 -388
-690 -720 -18 -52 -34 -106 -36 -120 -3 -14 -9 -49 -15 -79 -25 -125 -8 -393
31 -496 6 -16 11 -32 11 -35 -2 -14 27 -86 70 -175 120 -248 344 -460 593
-564 390 -162 817 -114 1158 129 134 95 292 272 343 383 8 18 19 39 25 47 6 8
17 32 25 53 l15 37 71 -54 c294 -224 696 -300 1049 -199 308 88 575 311 721
600 l36 71 74 -45 c216 -130 414 -187 649 -184 137 1 202 10 315 43 144 41
314 131 414 219 l44 39 56 -53 c154 -146 346 -248 561 -298 136 -32 376 -32
505 -1 124 31 257 83 344 137 40 25 75 45 77 45 9 0 72 57 149 135 185 185
305 419 341 666 10 70 11 280 1 344 -8 48 -42 189 -52 217 -4 10 9 18 42 26
26 7 51 11 54 10 3 -2 12 2 20 8 8 6 27 14 43 18 16 4 65 24 110 46 263 124
495 391 584 670 49 151 63 235 63 374 2 316 -111 598 -331 830 -166 174 -432
311 -665 342 -61 8 -87 12 -90 16 -1 2 5 41 15 88 23 114 25 310 5 425 -28
156 -93 325 -168 434 l-29 43 24 22 c26 23 116 86 123 86 3 0 28 15 57 34 180
113 458 247 641 306 87 29 115 35 212 48 138 20 332 -13 523 -88 117 -45 161
-47 222 -6 32 21 53 51 149 214 18 31 41 69 50 84 165 275 204 345 208 382 7
68 -31 137 -93 169 -31 16 -251 80 -309 91 -206 36 -305 47 -450 49 -372 4
-765 -112 -1103 -326 l-65 -41 -106 55 c-372 192 -650 377 -811 541 -61 61
-129 163 -117 174 3 3 22 -3 44 -14 106 -54 293 -103 401 -104 63 -1 180 10
193 18 5 3 19 7 30 9 12 2 55 21 96 41 283 138 451 530 364 849 -54 196 -184
353 -376 453 -291 151 -619 101 -866 -133 -121 -115 -250 -351 -284 -522 -4
-18 -10 -33 -13 -33 -11 0 -260 255 -334 341 -104 122 -258 333 -258 353 0 2
34 3 75 2 67 -2 137 4 225 19 69 12 190 57 248 92 180 110 255 264 218 448
-52 261 -178 415 -385 470 -73 19 -203 16 -290 -6z m234 -153 c44 -10 114 -46
148 -75 82 -72 148 -216 149 -321 1 -127 -101 -237 -274 -294 -95 -32 -133
-38 -253 -41 -164 -4 -170 -2 -194 59 -48 122 -65 199 -65 301 -1 90 2 106 27
156 65 134 237 232 392 223 28 -2 59 -5 70 -8z m1252 -1060 c119 -21 228 -115
283 -246 96 -229 67 -434 -83 -582 -183 -180 -479 -169 -810 29 -50 31 -94 57
-96 59 -9 8 -9 152 0 204 34 191 181 385 364 477 119 60 225 79 342 59z"/>
</g>
</svg>
